<?xml version="1.0" encoding="UTF-8"?>
<svg width="128" height="128" version="1.1" viewBox="0 0 128 128" xmlns="http://www.w3.org/2000/svg">
 <circle cx="64" cy="64" r="60" fill="#4CAF50" stroke="#388E3C" stroke-width="4"/>
 <path d="m64 32a32 32 0 0 0-32 32 32 32 0 0 0 32 32 32 32 0 0 0 32-32 32 32 0 0 0-32-32zm0 8a24 24 0 0 1 24 24 24 24 0 0 1-24 24 24 24 0 0 1-24-24 24 24 0 0 1 24-24z" fill="#fff"/>
 <path d="m64 52v24" stroke="#fff" stroke-linecap="round" stroke-width="8"/>
 <circle cx="64" cy="64" r="4" fill="#fff"/>
</svg> 